<?xml version="1.0" encoding="UTF-8" standalone="no"?>
<!-- Created with Inkscape (http://www.inkscape.org/) -->

<svg
   xmlns:dc="http://purl.org/dc/elements/1.1/"
   xmlns:cc="http://creativecommons.org/ns#"
   xmlns:rdf="http://www.w3.org/1999/02/22-rdf-syntax-ns#"
   xmlns:svg="http://www.w3.org/2000/svg"
   xmlns="http://www.w3.org/2000/svg"
   version="1.1"
   width="320"
   height="120"
   id="svg4544">
  <defs
     id="defs4546" />
  <metadata
     id="metadata4549">
    <rdf:RDF>
      <cc:Work
         rdf:about="">
        <dc:format>image/svg+xml</dc:format>
        <dc:type
           rdf:resource="http://purl.org/dc/dcmitype/StillImage" />
        <dc:title></dc:title>
      </cc:Work>
    </rdf:RDF>
  </metadata>
  <g
     transform="translate(0,-932.36218)"
     id="layer1">
    <g
       transform="matrix(0.62158903,0,0,0.62158903,3.4464087,398.69424)"
       id="g3205">
      <path
         d="m 421.0333,891.74501 0,19.43903 1.06915,0 c -2e-5,-0.24461 0.4427,-1.53481 1.23924,-3.71772 l 0,-10.91015 c -5e-5,-1.2623 -0.57733,-2.6707 -1.74951,-4.20369 -0.16367,-0.2182 -0.35579,-0.41127 -0.55888,-0.60747 z m -99.30916,1.04484 c 15.41549,51.2641 23.37534,78.13779 23.37544,78.99538 -10e-5,0.90171 -0.54607,1.79546 -1.62802,2.69716 -2.52488,1.98377 -7.53256,2.98876 -15.01666,2.98876 -11.93827,0 -19.50912,-1.06422 -22.71937,-3.18315 l 0.55888,5.17565 c 0.36062,3.78718 8.53287,5.68591 24.49318,5.68591 7.4841,0 12.49177,-1.00499 15.01665,-2.98875 1.08195,-0.9017 1.62792,-1.79545 1.62802,-2.69716 -10e-5,-0.9017 -8.52012,-29.68196 -25.56233,-86.30931 -0.038,-0.1268 -0.0923,-0.24363 -0.14579,-0.36449 z m 148.27123,6.00181 c -0.61351,1.9932 -2.37681,5.0294 -5.29714,9.16064 -3.60692,5.1398 -9.10494,12.02192 -16.49888,20.67827 1.22588,1.29048 2.97773,3.13436 4.66537,4.93266 6.19058,-7.33864 10.96276,-13.36767 14.1662,-17.93251 3.69691,-5.22984 5.56433,-8.76648 5.56442,-10.56998 -7e-5,-2.25796 -0.88822,-4.34234 -2.59997,-6.26908 z m -264.90544,2.79436 c -2.16414,7e-5 -3.60386,0.17396 -4.32518,0.53457 l 0,54.64798 2.33268,0.24299 0,-47.21255 c 0.72132,-0.36061 2.16104,-0.5345 4.32519,-0.53458 2.50328,7e-5 4.47917,1.13258 5.9046,3.40184 -0.34029,-2.39629 -0.78659,-4.28695 -1.33643,-5.66162 -1.44279,-3.60677 -3.74493,-5.41856 -6.90086,-5.41863 z m 45.43875,6.87655 c 1.25657,5.70559 1.89526,12.47378 1.8953,20.3138 -9e-5,17.94404 -3.42549,30.57799 -10.27839,37.88181 -6.85307,7.21368 -18.8298,10.81297 -35.96221,10.81297 l -31.92861,0 c -4.37543,0 -7.34759,-0.30437 -8.89336,-0.92336 l 0,4.54388 c -1e-5,1.44273 0.75118,2.47905 2.28408,3.11024 1.5329,0.63119 4.52358,0.94765 8.94196,0.94765 l 31.90432,0 c 17.1324,0 29.13344,-3.62358 35.98651,-10.83726 1.4231,-1.51674 2.68733,-3.27295 3.81491,-5.24854 0.69053,-3.21566 2.66479,-10.09441 5.88031,-20.62967 0.39363,-3.68934 0.58314,-7.67882 0.58317,-11.97931 -7e-5,-11.72152 -1.41921,-21.04175 -4.22799,-27.99221 z m 44.66118,4.49528 -2.30839,24.34739 3.06165,0 1.57942,-16.69327 1.26354,0 -0.63177,-7.65412 -2.96445,0 z m 130.02284,37.73603 -4.1794,5.00555 0,17.56802 c -4e-5,1.17223 -2.81682,2.1216 -8.40738,2.84296 -5.50045,0.72137 -10.99848,1.09345 -16.49888,1.09345 -5.47818,0 -8.97869,-0.32155 -10.52138,-0.94765 l 0,4.68966 c 0,1.35257 0.77548,2.35756 2.30839,2.98875 1.53289,0.6312 5.04524,0.94766 10.54567,0.94766 5.5004,0 10.99843,-0.37208 16.49889,-1.09345 5.59055,-0.72137 8.38303,-1.67073 8.38308,-2.84296 l 0,-17.59232 4.20369,-5.00555 c 3.78713,9.28762 6.98301,16.28098 9.59802,20.96985 2.70507,4.59872 4.83332,6.90086 6.36629,6.90086 2.34437,0 5.91234,-0.94937 10.69146,-2.84296 4.77898,-1.98375 9.27202,-4.49111 13.51013,-7.55692 4.23795,-3.15597 6.36619,-5.91714 6.36629,-8.26159 -6e-5,-1.45989 -0.8624,-3.53681 -2.57567,-6.22049 -0.67714,2.00613 -2.7313,4.27766 -6.1233,6.80366 -4.23811,3.06581 -8.73115,5.59747 -13.51013,7.58122 -4.77912,1.89359 -8.34709,2.81866 -10.69147,2.81866 -1.53297,0 -3.66122,-2.27784 -6.36628,-6.87656 -2.61501,-4.68887 -5.8109,-11.68223 -9.59802,-20.96985 z m -135.17419,12.29518 -0.68036,7.58123 c -0.18039,2.61496 -1.56448,4.42675 -4.1794,5.41863 -2.52482,0.99188 -7.1291,1.48223 -13.80171,1.48223 -6.67267,0 -12.25763,-0.5773 -16.76617,-1.74952 -1.3663,-0.39036 -2.50663,-0.81281 -3.45043,-1.26353 -0.55779,2.18753 -0.85045,3.60884 -0.85045,4.17939 0,1.89359 2.21519,3.47588 6.63357,4.73826 4.50853,1.17222 10.0935,1.77381 16.76616,1.77381 6.67262,0 11.2769,-0.51464 13.80172,-1.50652 2.61491,-0.99188 3.999,-2.77937 4.17939,-5.39433 l 0.68037,-7.58123 11.49333,0 -0.82616,-7.67842 -12.99986,0 z"
         id="text3665"
         style="font-size:173.94940186px;font-style:normal;font-variant:normal;font-weight:normal;font-stretch:normal;line-height:125%;letter-spacing:0px;word-spacing:0px;fill:#e6e6e6;fill-opacity:1;stroke:none;font-family:Days One;-inkscape-font-specification:Days One" />
      <path
         d="m 204.33746,976.0016 -31.92049,0 c -4.41838,0 -7.39402,-0.3156 -8.92692,-0.94679 -1.53291,-0.63119 -2.29936,-1.66816 -2.29936,-3.1109 l 0,-85.34674 c 0,-2.34436 0.99188,-4.01251 2.97565,-5.00449 1.98374,-1.08195 5.41024,-1.62298 10.27947,-1.62307 l 30.43268,0 c 17.31275,9e-5 29.26037,3.42659 35.84293,10.27948 6.58238,6.76289 9.87362,19.1163 9.87371,37.06023 -9e-5,17.94404 -3.42658,30.56796 -10.27948,37.87178 -6.85306,7.21367 -18.84578,10.8205 -35.97819,10.8205 m -1.08204,-75.8788 c -2.16415,8e-5 -3.60688,0.18042 -4.3282,0.54103 l 0,54.64356 5.13973,0.54102 c 2.70508,2e-5 4.73392,-2.16408 6.08654,-6.49231 1.44267,-4.32817 2.16404,-11.81234 2.1641,-22.45255 -6e-5,-10.6401 -0.72143,-17.7636 -2.1641,-21.37049 -1.44279,-3.60677 -3.74214,-5.41018 -6.89807,-5.41026"
         id="path4655"
         style="font-size:173.94940186px;font-style:normal;font-variant:normal;font-weight:normal;font-stretch:normal;line-height:125%;letter-spacing:-12.59000874px;word-spacing:0px;fill:#000000;fill-opacity:1;stroke:none;font-family:Titan One;-inkscape-font-specification:Titan One" />
      <path
         d="m 287.53246,969.10353 c -0.18038,2.61496 -1.57803,4.41837 -4.19294,5.41025 -2.52482,0.99188 -7.12354,1.48782 -13.79615,1.48782 -6.67266,0 -12.26325,-0.58611 -16.77178,-1.75833 -4.41838,-1.26239 -6.62757,-2.84038 -6.62757,-4.73397 0,-2.1641 4.01261,-15.96023 12.03782,-41.38843 8.02519,-25.51829 12.6239,-40.21614 13.79615,-44.09357 0.45083,-1.17213 4.05765,-2.11893 10.8205,-2.84039 6.85294,-0.81144 14.15678,-1.21721 21.91153,-1.2173 7.8448,9e-5 12.173,1.35265 12.98461,4.05769 17.04221,56.62735 25.56335,85.39183 25.56345,86.29354 -1e-4,0.90171 -0.54113,1.80342 -1.62308,2.70513 -2.52488,1.98376 -7.52936,2.97563 -15.01345,2.97563 -15.96032,0 -24.12077,-1.89359 -24.4814,-5.68076 l -0.9468,-8.79166 -12.9846,0 -0.67629,7.57435 m 10.82051,-33.27306 -2.02885,-24.34614 -2.97563,0 -2.29936,24.34614 7.30384,0"
         id="path4657"
         style="font-size:173.94940186px;font-style:normal;font-variant:normal;font-weight:normal;font-stretch:normal;line-height:125%;letter-spacing:-12.59000874px;word-spacing:0px;fill:#000000;fill-opacity:1;stroke:none;font-family:Titan One;-inkscape-font-specification:Titan One" />
      <path
         d="m 419.18663,971.80866 c -4e-5,1.17222 -2.79534,2.11901 -8.38589,2.84038 -5.50046,0.72137 -11.00087,1.08206 -16.50127,1.08206 -5.50044,0 -9.0171,-0.31561 -10.55,-0.9468 -1.53291,-0.6312 -2.29936,-1.62308 -2.29936,-2.97564 l 0,-82.91213 c 0,-2.34436 2.52478,-4.41829 7.57436,-6.22179 5.13972,-1.80333 11.04591,-2.70504 17.71858,-2.70513 5.50039,9e-5 9.06213,1.08215 10.68525,3.24615 1.17218,1.533 1.75829,2.93064 1.75833,4.19295 l 0,22.31729 1.08205,0 c -5e-5,-0.45079 1.35252,-4.19287 4.05769,-11.22627 5.13969,-13.25504 8.88178,-19.88259 11.22627,-19.88269 4.41832,10e-5 10.6401,1.30758 18.66538,3.92244 3.87727,1.26248 7.21358,3.11098 10.00897,5.54551 2.7952,2.34453 4.19285,4.95948 4.19295,7.84487 -10e-5,1.80349 -1.8486,5.32015 -5.54552,10.54999 -3.60691,5.1398 -9.10733,12.03787 -16.50126,20.69422 1.71317,1.80347 3.87727,4.10282 6.4923,6.89807 2.61488,2.79533 6.08645,6.98828 10.41473,12.57884 4.41829,5.50045 6.62747,9.42287 6.62756,11.7673 -9e-5,2.34446 -2.1191,5.09467 -6.35704,8.25064 -4.23812,3.06582 -8.74666,5.5906 -13.52563,7.57435 -4.77913,1.89359 -8.34087,2.84039 -10.68525,2.84039 -1.53297,0 -3.65198,-2.29936 -6.35705,-6.89808 -2.61502,-4.68887 -5.81607,-11.67711 -9.6032,-20.96473 l -4.19295,5.00448 0,17.58333"
         id="path4659"
         style="font-size:173.94940186px;font-style:normal;font-variant:normal;font-weight:normal;font-stretch:normal;line-height:125%;letter-spacing:-12.59000874px;word-spacing:0px;fill:#000000;fill-opacity:1;stroke:none;font-family:Titan One;-inkscape-font-specification:Titan One" />
      <path
         d="m 396.01488,899.44273 c 1.18359,3.92595 1.26588,8.32308 0.26728,13.19424 -1.01418,4.94674 -3.01883,9.37345 -6.0261,13.26715 -3.00742,3.89377 -6.05577,6.89003 -9.16064,9.01485 -3.08691,2.03655 -6.57511,3.81936 -10.47278,5.32143 -4.48213,1.65847 -8.6997,2.82818 -12.61107,3.49903 l 12.48958,2.55137 c 0.82033,-0.27624 1.63808,-0.56379 2.47847,-0.87475 3.89768,-1.50207 7.38587,-3.26059 10.47278,-5.29714 3.10487,-2.12482 6.15322,-5.14537 9.16065,-9.03915 3.00726,-3.89369 5.03621,-8.29611 6.0504,-13.24284 1.46451,-7.1439 0.58043,-13.28329 -2.64857,-18.39419 z m -50.22561,6.80366 c -2.20205,0.0778 -4.50858,0.40887 -6.92515,0.97195 -4.74489,1.1444 -7.42459,1.65765 -8.0429,1.53083 -0.61834,-0.12675 -1.19592,-0.44015 -1.70092,-0.92336 0.8324,3.67458 2.17949,5.71396 4.0579,6.099 0.61831,0.12682 3.29801,-0.36213 8.0429,-1.50652 4.83316,-1.12617 9.24348,-1.30083 13.21854,-0.48598 0.99374,0.20374 1.84002,0.48343 2.55138,0.80186 0.0989,-0.26638 0.16569,-0.51906 0.21869,-0.77756 0.54322,-2.64996 -1.15208,-4.38498 -5.12705,-5.19994 -1.98753,-0.40742 -4.09133,-0.58811 -6.29339,-0.51028 z m 41.35655,48.18451 c 0.0187,0.18378 0.0317,0.33907 0.0486,0.53457 0.23575,2.44156 -0.005,5.40861 -0.72897,8.94196 -0.70633,3.44501 -1.52364,6.33159 -2.45418,8.62607 -0.91257,2.20612 -1.7887,3.78071 -2.62427,4.71396 -1.81401,2.11337 -3.27763,3.12658 -4.37378,3.08595 l -0.68036,0 -58.02552,-11.88211 c -0.91591,-0.18776 -1.71275,-0.611 -2.38128,-1.23924 0.66109,3.76941 2.24702,5.90417 4.73826,6.41488 l 58.02552,11.90641 0.70466,0 c 1.09616,0.0406 2.53547,-0.99688 4.34949,-3.11024 0.83556,-0.93326 1.71169,-2.48355 2.62427,-4.68967 0.93053,-2.29447 1.74785,-5.18105 2.45418,-8.62607 0.72427,-3.53335 0.98901,-6.5247 0.75326,-8.96626 -0.21781,-2.52987 -0.61434,-4.07262 -1.14205,-4.64107 -0.42777,-0.55112 -0.84586,-0.90398 -1.28783,-1.06914 z"
         id="text3665-8"
         style="font-size:173.94940186px;font-style:normal;font-variant:normal;font-weight:normal;font-stretch:normal;line-height:125%;letter-spacing:0px;word-spacing:0px;fill:#e6e6e6;fill-opacity:1;stroke:none;font-family:Days One;-inkscape-font-specification:Days One" />
      <path
         d="m 330.08087,907.64022 c -2.47337,-0.507 -4.03994,-3.86567 -4.69974,-10.07605 -0.5715,-6.19215 -0.30492,-11.98242 0.79974,-17.37086 0.25351,-1.23658 1.90337,-2.32507 4.94959,-3.26545 3.06428,-1.02854 7.50571,-1.59076 13.3243,-1.68666 5.8185,-0.0957 11.99612,0.52641 18.53287,1.86638 25.35171,5.19737 36.20764,16.67354 32.56783,34.42855 -1.01419,4.94674 -3.02491,9.36695 -6.03218,13.26064 -3.00743,3.89378 -6.06358,6.90308 -9.16844,9.0279 -3.08692,2.03655 -6.5792,3.80585 -10.47688,5.30792 -4.48213,1.65846 -8.67887,2.82312 -12.59024,3.49396 l 26.50013,5.43269 c 0.52992,0.10867 1.04976,0.49138 1.55953,1.14814 0.52771,0.56844 0.90046,2.1176 1.11827,4.64747 0.23576,2.44156 -0.008,5.429 -0.73278,8.96235 -0.70633,3.44501 -1.52476,6.31476 -2.45529,8.60922 -0.91258,2.20613 -1.78665,3.77582 -2.62222,4.70907 -1.81402,2.11336 -3.2691,3.14973 -4.36525,3.1091 l -0.68968,-0.003 -58.03528,-11.8976 c -5.56503,-1.14087 -6.56382,-10.41217 -2.99634,-27.81392 0.39838,-1.94332 7.23567,-6.11042 20.51187,-12.50134 4.98024,-2.29263 9.67056,-4.96691 14.07097,-8.02283 4.40032,-3.05584 6.84497,-5.77628 7.33396,-8.16134 0.54322,-2.64996 -1.17266,-4.38242 -5.14762,-5.19738 -3.97506,-0.81484 -8.37916,-0.65918 -13.21232,0.46698 -4.74489,1.1444 -7.42648,1.65319 -8.0448,1.52637"
         id="path4652"
         style="font-size:173.94940186px;font-style:normal;font-variant:normal;font-weight:normal;font-stretch:normal;line-height:125%;letter-spacing:-12.59000874px;word-spacing:0px;fill:#ff0000;fill-opacity:1;stroke:none;font-family:Titan One;-inkscape-font-specification:Titan One" />
      <path
         d="m 136.50208,883.71406 c 0.26716,8.83157 -0.0235,75.64939 -0.0235,75.64939 0,15.39779 -10.54692,30.35819 -24.59607,42.90175 -14.049153,12.5436 -31.588107,22.6657 -37.695121,23.159 -12.383045,-4.2545 -30.076711,-16.6957 -40.051066,-26.10391 1.338261,1.71951 2.56981,3.11651 3.581036,4.00511 9.054469,9.5523 29.277961,24.273 42.972442,28.9781 6.107013,-0.4932 23.645969,-10.6154 37.695119,-23.1589 14.04915,-12.54359 24.59607,-27.50401 24.59607,-42.90178 0,0 0.29904,-70.26469 0,-76.54466 -0.29905,-6.27996 -5.96055,-5.9841 -5.96055,-5.9841 l -0.5183,0 z m -61.914234,11.35566 0.353393,110.77648 c 0,0 2.590998,-1.4078 6.478844,-3.8637 l -0.329834,-100.03342 37.388851,0.25915 c -0.11092,-4.23765 -0.23559,-6.83225 -0.23559,-6.83225 l -43.655664,-0.30626 z"
         id="path4010"
         style="fill:#e6e6e6;stroke:none" />
      <path
         d="m 127.29371,873.95397 -110.960594,0.29008 c -5.083775,0.29904 -6.8649371,4.79578 -6.8649371,4.79578 0,0 -0.5262466,65.06493 0,80.31009 0.2990423,8.66333 12.8437901,29.21595 18.5256591,34.20866 9.054473,9.55232 29.274225,24.28232 42.968706,28.98742 6.107021,-0.4932 23.65966,-10.6232 37.708806,-23.16672 14.04916,-12.54357 24.59775,-27.49358 24.59775,-42.89136 0,0 0.29905,-70.27858 0,-76.55855 -0.29905,-6.27995 -5.97539,-5.9754 -5.97539,-5.9754 z m -55.925069,18.23561 43.664869,0.3094 c 0,0 1.34657,29.59249 -0.59947,65.47795 -2.08432,22.95231 -42.717316,44.97987 -42.717316,44.97987 L 71.368641,892.18958 z"
         id="path4010-7-7"
         style="fill:#ff0000;stroke:none" />
      <path
         d="m 149.33451,990.98518 c 119.36734,24.21712 234.53219,23.15522 343.91688,-9.23267 0,0 -152.33902,91.17259 -343.91688,9.23267 z"
         id="path4106"
         style="fill:#e6e6e6;stroke:none" />
      <path
         d="m 149.79542,998.67112 c 119.36734,24.21708 234.5322,23.15518 343.91689,-9.23266 0,0 -152.33903,91.17264 -343.91689,9.23266 z"
         id="path4106-3"
         style="fill:#ff0000;stroke:none" />
    </g>
  </g>
</svg>
