<?xml version="1.0" encoding="utf-8"?>
<!-- Generator: Adobe Illustrator 19.2.0, SVG Export Plug-In . SVG Version: 6.00 Build 0)  -->
<svg version="1.1" id="Layer_1" xmlns="http://www.w3.org/2000/svg" xmlns:xlink="http://www.w3.org/1999/xlink" x="0px" y="0px"
	 viewBox="0 0 829.3 1000" style="enable-background:new 0 0 829.3 1000;" xml:space="preserve">
<style type="text/css">
	.st0{fill:#FFFFFF;}
	.st1{fill:#2196F3;}
	.st2{fill:#1565C0;}
</style>
<g>
	<g>
		<g id="XMLID_63_">
			<path id="XMLID_78_" class="st0" d="M1.5,737.7h99v33.8H41v15h55.2v30.7H41V856H1.5V737.7z"/>
			<path id="XMLID_75_" class="st0" d="M166.4,794c4.7,0,8.4-1,11.1-3s4.1-4.8,4.1-8.4v-0.3c0-3.8-1.4-6.7-4.1-8.5
				c-2.7-1.9-6.4-2.8-11-2.8h-17.2v23H166.4z M109.8,737.7h57.8c10.6,0,19.3,1.2,26.1,3.6c6.8,2.4,12.3,5.7,16.5,9.9
				c3.6,3.6,6.3,7.7,8.1,12.2c1.8,4.5,2.7,9.8,2.7,15.9v0.3c0,8.7-2.1,16-6.2,22c-4.2,6-9.9,10.7-17.1,14.2l27.5,40.2h-45.1
				l-22.3-33.8h-0.4h-8.1V856h-39.5V737.7z"/>
			<path id="XMLID_72_" class="st0" d="M292.2,858.5c-9.1,0-17.6-1.6-25.4-4.7c-7.8-3.2-14.6-7.5-20.4-13s-10.3-12-13.6-19.5
				c-3.3-7.5-4.9-15.5-4.9-24.1v-0.3c0-8.6,1.7-16.6,5-24.1s7.9-14,13.7-19.6c5.8-5.6,12.6-10,20.5-13.2s16.4-4.8,25.5-4.8
				s17.6,1.6,25.4,4.7c7.8,3.2,14.6,7.5,20.4,13s10.3,12,13.6,19.5c3.3,7.5,4.9,15.5,4.9,24.1v0.3c0,8.6-1.7,16.6-5,24.1
				s-7.9,14-13.7,19.6c-5.8,5.6-12.6,10-20.5,13.2S301.3,858.5,292.2,858.5z M292.6,823.5c3.7,0,7.1-0.7,10.1-2.2s5.6-3.4,7.8-5.8
				c2.1-2.4,3.8-5.2,4.9-8.4s1.7-6.5,1.7-10v-0.3c0-3.5-0.6-6.8-1.8-10c-1.2-3.2-2.8-6.1-5-8.5c-2.1-2.5-4.7-4.4-7.8-5.9
				c-3-1.5-6.5-2.2-10.3-2.2c-3.7,0-7.1,0.7-10.1,2.2s-5.6,3.4-7.8,5.8c-2.1,2.4-3.8,5.2-4.9,8.4s-1.7,6.5-1.7,10v0.3
				c0,3.5,0.6,6.8,1.8,10c1.2,3.2,2.8,6.1,5,8.5c2.1,2.5,4.7,4.4,7.8,5.9C285.3,822.8,288.7,823.5,292.6,823.5z"/>
			<path id="XMLID_70_" class="st0" d="M367.7,737.7h37l42.1,52.2v-52.2H486V856h-35.1L407,801.4V856h-39.2V737.7H367.7z"/>
			<path id="XMLID_68_" class="st0" d="M529.7,771.2h-34.8v-33.4H604v33.4h-34.8V856h-39.5V771.2z"/>
			<path id="XMLID_66_" class="st0" d="M656.2,737.7h39.5V856h-39.5V737.7z"/>
			<path id="XMLID_64_" class="st0" d="M709.6,737.7h37l42.1,52.2v-52.2h39.2V856h-35.1l-43.9-54.6V856h-39.2L709.6,737.7
				L709.6,737.7z"/>
		</g>
		<g id="XMLID_41_">
			<path id="XMLID_61_" class="st1" d="M50,987.2c-9.9,0-19.2-1.4-27.8-4.1c-8.6-2.7-16-6.9-22.2-12.3L17.4,950
				c5.3,4.1,10.9,7,16.7,8.8c5.9,1.8,11.7,2.6,17.4,2.6c3,0,5.1-0.4,6.4-1.1c1.3-0.7,2-1.8,2-3.1V957c0-1.4-1-2.6-2.9-3.5
				s-5.5-1.9-10.7-2.9c-5.5-1.1-10.7-2.4-15.7-3.9s-9.3-3.4-13.1-5.7c-3.8-2.3-6.8-5.2-9-8.7s-3.3-7.8-3.3-13V919
				c0-4.6,0.9-9,2.7-13c1.8-4,4.5-7.5,7.9-10.5c3.5-3,7.8-5.3,13-7s11.1-2.5,17.8-2.5c9.5,0,17.8,1.1,24.9,3.3
				c7.1,2.2,13.5,5.6,19.2,10l-15.9,22c-4.6-3.3-9.5-5.8-14.7-7.3s-10-2.3-14.6-2.3c-2.4,0-4.2,0.4-5.4,1.1
				c-1.2,0.7-1.7,1.7-1.7,2.9v0.3c0,0.7,0.2,1.3,0.6,1.8c0.4,0.6,1,1.1,2,1.6s2.3,1,4,1.5s3.8,0.9,6.4,1.4c6.2,1.1,11.9,2.5,17,4
				c5.1,1.6,9.5,3.6,13.2,6.1s6.5,5.4,8.5,8.9c2,3.4,3,7.6,3,12.5v0.3c0,5.1-1,9.7-3.1,13.8c-2,4.1-4.9,7.6-8.6,10.4
				c-3.7,2.8-8.2,5-13.6,6.6C62.4,986.5,56.5,987.2,50,987.2z"/>
			<path id="XMLID_58_" class="st1" d="M134.6,887.1h32.3l41.1,98.3h-35.4l-5.2-13.1h-34.2l-5,13.1H93.3L134.6,887.1z M159.4,949.2
				l-8.9-23.7l-8.9,23.7H159.4z"/>
			<path id="XMLID_56_" class="st1" d="M212.1,887.8h32.6v69.7h45.9v27.9h-78.5V887.8z"/>
			<path id="XMLID_54_" class="st1" d="M290.6,887.8h36.5l19,54.8l19-54.8h36l-39.7,98.3h-31.2L290.6,887.8z"/>
			<path id="XMLID_51_" class="st1" d="M439.1,887.1h32.3l41.1,98.3h-35.4l-5.2-13.1h-34.2l-5,13.1h-34.9L439.1,887.1z M463.9,949.2
				l-8.9-23.7l-8.9,23.7H463.9z"/>
			<path id="XMLID_48_" class="st1" d="M516.6,887.8H554c9.7,0,18.1,1.1,25.4,3.4c7.3,2.3,13.4,5.5,18.2,9.7
				c4.8,4.2,8.5,9.2,10.9,15.1c2.4,5.9,3.6,12.5,3.6,19.7v0.3c0,7.3-1.2,13.9-3.7,19.9s-6.2,11.2-11.2,15.6
				c-5,4.4-11.2,7.8-18.5,10.2c-7.4,2.4-16,3.6-25.9,3.6h-36.2V887.8z M554.7,957c7.5,0,13.5-1.6,17.9-4.8s6.6-8.3,6.6-15.4v-0.3
				c0-7.1-2.2-12.2-6.6-15.4s-10.4-4.8-17.9-4.8h-5.4V957H554.7z"/>
			<path id="XMLID_45_" class="st1" d="M671.9,987.5c-7.5,0-14.5-1.3-21-3.9c-6.5-2.6-12.1-6.2-16.9-10.7
				c-4.8-4.6-8.5-9.9-11.2-16.1c-2.7-6.2-4-12.8-4-19.9v-0.3c0-7.1,1.4-13.7,4.1-19.9c2.7-6.2,6.5-11.6,11.3-16.2
				c4.8-4.6,10.4-8.2,16.9-10.9c6.5-2.6,13.5-4,21.1-4c7.5,0,14.5,1.3,21,3.9c6.5,2.6,12.1,6.2,16.9,10.7c4.8,4.6,8.5,9.9,11.2,16.1
				c2.7,6.2,4,12.8,4,19.9v0.3c0,7.1-1.4,13.7-4.1,19.9s-6.5,11.6-11.3,16.2c-4.8,4.6-10.4,8.2-16.9,10.9S679.5,987.5,671.9,987.5z
				 M672.2,958.6c3.1,0,5.9-0.6,8.4-1.8s4.6-2.8,6.4-4.8s3.1-4.3,4-6.9c0.9-2.6,1.4-5.3,1.4-8.2v-0.3c0-2.9-0.5-5.6-1.5-8.3
				c-1-2.6-2.3-5-4.1-7c-1.8-2-3.9-3.7-6.4-4.9s-5.3-1.8-8.5-1.8c-3.1,0-5.9,0.6-8.4,1.8s-4.6,2.8-6.4,4.8c-1.8,2-3.1,4.3-4,6.9
				c-0.9,2.6-1.4,5.3-1.4,8.2v0.3c0,2.9,0.5,5.6,1.5,8.3c1,2.6,2.3,5,4.1,7c1.8,2,3.9,3.7,6.4,4.9S669,958.6,672.2,958.6z"/>
			<path id="XMLID_42_" class="st1" d="M734.2,887.8h47.7c8.7,0,15.9,1,21.5,3s10.2,4.7,13.6,8.2c3,3,5.2,6.3,6.7,10
				s2.2,8.1,2.2,13.1v0.3c0,7.2-1.7,13.2-5.2,18.1c-3.4,4.9-8.1,8.8-14.1,11.7l22.7,33.2h-37.2l-18.4-27.9h-0.3h-6.7v27.9h-32.6
				L734.2,887.8L734.2,887.8z M781,934.2c3.9,0,7-0.8,9.2-2.5c2.2-1.7,3.3-4,3.3-7v-0.3c0-3.2-1.1-5.5-3.3-7
				c-2.2-1.5-5.3-2.3-9.1-2.3h-14.2v19.1H781z"/>
		</g>
	</g>
	<g>
		<path id="XMLID_39_" class="st1" d="M414.7,13.2c-180.1,0-326.2,146-326.2,326.2c0,147.5,97.9,272.1,232.3,312.5
			c1.6-19.1,8.6-94.4,9.9-107.6c26.8,6.3,54.8,9.6,83.5,9.6c29.4,0,58.1-3.5,85.5-10.1l9,108C643,611.5,740.9,486.9,740.9,339.4
			C740.9,159.3,594.8,13.2,414.7,13.2z"/>
		<path id="XMLID_38_" class="st2" d="M414.7,410.1c-105.5,0-199.3,50.1-258.9,127.8c41.2,53.6,98.6,94.1,165,114
			c1.6-19.1,8.6-94.4,9.9-107.6c26.8,6.3,54.8,9.6,83.5,9.6c29.4,0,58.1-3.5,85.5-10.1l9,108c66.3-19.9,123.8-60.4,164.9-114
			C613.9,460.2,520.2,410.1,414.7,410.1z"/>
		<rect id="XMLID_37_" x="352.5" y="184.9" class="st0" width="125.5" height="95.7"/>
		<path id="XMLID_36_" class="st0" d="M414.6,665.6c32.7,0,64.2-4.8,94-13.7l-9-108c-27.4,6.6-56,10.1-85.5,10.1
			c-28.7,0-56.7-3.3-83.5-9.6c-1.2,13.1-8.3,88.5-9.9,107.6C350.5,660.8,382,665.6,414.6,665.6z"/>
		<path id="XMLID_35_" class="st0" d="M478.7,321.5c0,0-5.1-11.1-64.2-11.1s-64.2,11.1-64.2,11.1l-10,96.9c0,0,32.2,8.7,74.4,8.4
			c22.4-0.1,49.4-2.1,74.1-8.2L478.7,321.5z"/>
		<polygon id="XMLID_34_" points="425.2,337.8 412.1,337.8 404.2,337.8 404.2,384.6 412.2,384.6 425.2,384.6 		"/>
		<polyline id="XMLID_33_" points="404.2,622.5 404.2,631 412.4,631 425.2,631 425.2,584.2 412.3,584.2 404.2,584.2 404.2,607.4 		
			"/>
		<path id="XMLID_32_" d="M340.4,418.5l-10.2,125.8c26.8,6.3,54.8,9.6,83.5,9.6c29.4,0,58-3.5,85.4-10.1l-10.2-125.2
			c-24-5.6-49-8.6-74.7-8.6C388.9,410.1,364.2,413,340.4,418.5z"/>
		<polygon id="XMLID_31_" class="st0" points="425.2,456.4 412.3,456.4 404.2,456.4 404.2,503.3 412.3,503.3 425.2,503.3 		"/>
		<path id="XMLID_30_" d="M414.7,213.1L414.7,213.1L414.7,213.1L414.7,213.1z"/>
		<path id="XMLID_29_" d="M414.7,125.4"/>
		<path id="XMLID_27_" d="M496.2,277.6c-2.9-2.8-7.2-5.3-11-7.3c-0.7-0.4-1.1-1.1-1.1-1.8v-71.9c0-1.1,0.9-2.1,2.1-2.1l0,0l0,0
			c2.1,0,3.3,0.1,4.9-0.1c1.7-0.1,3.3-1,4.1-2.5c1-1.8,0.5-3.8-0.3-5.5c-0.4-0.8-0.8-1.6-1.3-2.4c-0.6-0.9-1.2-1.7-1.9-2.6
			c-0.8-0.9-1.6-1.8-2.4-2.7c-0.9-1-1.9-1.9-2.8-2.9c-1.1-1-2.1-2-3.2-3c-1.2-1.1-2.4-2.1-3.6-3.1c-1.3-1.1-2.6-2.1-3.9-3.2
			c-1.4-1.1-2.7-2.2-4.1-3.2c-1.4-1.1-2.9-2.2-4.3-3.2c-1.5-1.1-3-2.2-4.5-3.2c-1.5-1.1-3-2.2-4.6-3.2c-1.5-1.1-3.1-2.1-4.6-3.2
			c-1.2-0.8-25.9-17.4-35.3-23.6c-2.2-1.4-5-1.4-7.2,0c-9.4,6.2-34.2,22.7-35.4,23.6c-1.5,1.1-3.2,2.1-4.8,3.2
			c-1.5,1.1-3,2.1-4.5,3.2c-1.5,1.1-3,2.2-4.5,3.2c-1.4,1.1-2.9,2.2-4.3,3.2c-1.4,1.1-2.8,2.1-4.1,3.2c-1.3,1-2.6,2.1-3.9,3.2
			c-1.2,1-2.4,2-3.6,3.1c-1.1,1-2.2,2-3.2,3c-1,0.9-1.9,1.9-2.8,2.9c-0.8,0.9-1.6,1.8-2.4,2.7c-0.7,0.8-1.3,1.7-1.9,2.6
			c-0.5,0.8-0.9,1.5-1.3,2.4c-0.8,1.7-1.2,3.8-0.2,5.5c0.9,1.5,2.5,2.3,4.2,2.5c1.6,0.1,3,0.1,5,0.1l0,0l0,0c1.1,0,2.1,0.9,2.1,2.1
			v71.9c0,0.8-0.4,1.5-1.1,1.8c-3.9,2-8.3,4.5-11.1,7.3c-8,7.9-8.2,36,5.9,42.6l0.3,0.1c0.7,0.9,2.6,1.4,5.8,1.4h4.2
			c0.6,0,1.1-0.3,1.5-0.7c2.3-2.4,13.7-10.4,63.8-10.4s61.3,8,63.5,10.4c0.4,0.4,0.9,0.7,1.5,0.7h4.2c3.2,0,5.1-0.6,5.8-1.4l0.3-0.1
			C504.2,313.6,504.1,285.5,496.2,277.6z"/>
		<g>
			<g>
				<path id="XMLID_15_" class="st0" d="M355.8,224.1c6.6-2.7,19.8-4.8,29.7-6V186c-9.9,1.2-23.1,3.3-29.7,6V224.1z"/>
				<path id="XMLID_14_" class="st0" d="M355.8,266.5c6.6-2.7,19.8-4.8,29.7-6v-32.1c-9.9,1.2-23.1,3.3-29.7,6V266.5z"/>
			</g>
			<g>
				<path id="XMLID_13_" class="st0" d="M441.7,186.2v32.1c13.2,1.2,26.4,3.3,33,5.9v-32.1C468.1,189.4,454.9,187.4,441.7,186.2z"/>
				<path id="XMLID_12_" class="st0" d="M441.7,260.6c13.2,1.2,26.4,3.3,33,5.9v-32.1c-6.6-2.7-19.8-4.7-33-5.9V260.6z"/>
			</g>
			<g>
				<path id="XMLID_11_" class="st0" d="M394.6,185.4v32.1c6.6-0.4,13-0.6,19.1-0.6c6.7,0,10.6,0.2,20.5,0.7v-32.1
					c-9.9-0.4-13.8-0.7-20.5-0.7C407.6,184.8,401.2,185,394.6,185.4z"/>
				<path id="XMLID_10_" class="st0" d="M394.6,227.8v32.1c6.6-0.4,13-0.6,19.1-0.6c6.7,0,10.6,0.2,20.5,0.7v-32.1
					c-9.9-0.4-13.8-0.7-20.5-0.7C407.6,227.2,401.2,227.4,394.6,227.8z"/>
			</g>
		</g>
	</g>
</g>
</svg>
